<svg xmlns="http://www.w3.org/2000/svg" viewBox="0 0 512 512" role="img" aria-label="Intaliq">
  <rect width="512" height="512" rx="96" fill="#000000"/>
  <g fill="#b9ef62" transform="translate(26 22) rotate(-2 230 235)">
    <circle cx="312" cy="72" r="47"/>
    <path d="M195 128c-26-1-42 7-61 27l-65 70c-12 13-31 13-43 2-12-12-12-30 0-43l70-77c31-34 62-48 106-46l96 4c28 1 46 13 65 34l67 76c10 12 18 11 29 0l55-57c12-12 30-13 42-2 13 12 14 31 2 44l-72 79c-31 34-70 31-100-3l-42-48-47 77 59 39c42 27 53 77 20 114l-69 79c-13 15-35 16-49 3-14-13-15-35-2-49l66-74c8-9 8-19-3-26l-76-47c-44-27-57-66-30-111l46-78z"/>
    <path d="M132 286l39 31-75 140c-9 17-29 24-46 15-16-9-22-29-13-45z"/>
    <path d="M230 407l114 113 139-149c13-14 35-15 49-2l28 26c14 13 15 36 2 50L383 636c-13 14-35 15-49 2L168 474c-14-14-14-37 0-51l25-25c10-10 26-10 37 9z" transform="translate(-18 -115)"/>
  </g>
</svg>
